<svg width="171" height="168" viewBox="0 0 171 168" fill="none" xmlns="http://www.w3.org/2000/svg">
<path d="M35.5 50C35.5 60.8171 39.0079 71.3424 45.4974 79.9966C51.9868 88.6507 61.1078 94.967 71.4916 97.9976C81.8755 101.028 92.962 100.61 103.088 96.8046C113.213 92.9997 121.832 86.0136 127.651 76.8947C133.469 67.7758 136.173 57.016 135.358 46.2297C134.542 35.4435 130.25 25.2127 123.127 17.0725C116.003 8.93229 106.432 3.32176 95.8492 1.08281C85.2664 -1.15613 74.2429 0.0972649 64.433 4.65491L69.4395 15.4311C76.9182 11.9565 85.3219 11.001 93.3897 12.7079C101.458 14.4147 108.754 18.6919 114.185 24.8976C119.616 31.1033 122.887 38.9028 123.509 47.1257C124.131 55.3486 122.069 63.5515 117.634 70.5033C113.198 77.4551 106.627 82.7809 98.9081 85.6816C91.1887 88.5823 82.7368 88.9015 74.8207 86.5911C66.9046 84.2807 59.9512 79.4655 55.0039 72.868C50.0567 66.2704 47.3824 58.2464 47.3824 50L35.5 50Z" fill="#F59A15"/>
<path d="M118.276 50.0269C118.276 42.83 115.923 35.8305 111.576 30.0947C107.229 24.3589 101.126 20.2015 94.1976 18.2558C87.2687 16.3101 79.8937 16.6829 73.1963 19.3173C66.4989 21.9517 60.8464 26.7033 57.0999 32.8482C53.3535 38.993 51.7185 46.1942 52.4442 53.3544C53.1699 60.5146 56.2164 67.2413 61.1195 72.5095C66.0227 77.7777 72.5137 81.2986 79.6034 82.5357C86.6932 83.7728 93.993 82.6583 100.391 79.362L94.7465 68.4076C90.7379 70.473 86.164 71.1713 81.7217 70.3962C77.2794 69.621 73.2123 67.4149 70.1401 64.114C67.0679 60.813 65.1591 56.5982 64.7044 52.1118C64.2497 47.6254 65.2741 43.1134 67.6215 39.2631C69.969 35.4129 73.5107 32.4357 77.7072 30.785C81.9036 29.1343 86.5246 28.9008 90.8661 30.1199C95.2075 31.339 99.0314 33.944 101.755 37.5379C104.479 41.1317 105.953 45.5175 105.953 50.0269L118.276 50.0269Z" fill="#098268"/>
<path d="M108.11 73.8511C112 70.1232 114.917 65.4998 116.608 60.3845L97.7501 54.1506C97.0769 56.1871 95.9154 58.0278 94.3669 59.5119L108.11 73.8511Z" fill="#098268"/>
<path d="M155.474 143.267C153.879 143.267 152.457 142.99 151.209 142.437C149.961 141.873 148.973 141.042 148.246 139.946C147.53 138.839 147.172 137.461 147.172 135.811C147.172 134.422 147.427 133.256 147.937 132.311C148.447 131.367 149.142 130.608 150.021 130.032C150.9 129.457 151.898 129.023 153.016 128.73C154.145 128.437 155.328 128.231 156.565 128.111C158.019 127.96 159.191 127.818 160.081 127.688C160.971 127.547 161.617 127.341 162.018 127.07C162.42 126.798 162.621 126.397 162.621 125.865V125.767C162.621 124.736 162.295 123.939 161.644 123.374C161.004 122.81 160.092 122.528 158.909 122.528C157.661 122.528 156.668 122.805 155.93 123.358C155.192 123.901 154.704 124.584 154.465 125.409L148.051 124.888C148.377 123.369 149.017 122.056 149.972 120.949C150.927 119.831 152.159 118.974 153.667 118.377C155.187 117.769 156.945 117.465 158.942 117.465C160.331 117.465 161.66 117.628 162.93 117.953C164.211 118.279 165.345 118.784 166.332 119.467C167.331 120.151 168.117 121.03 168.693 122.105C169.268 123.168 169.555 124.443 169.555 125.93V142.795H162.979V139.328H162.783C162.382 140.109 161.845 140.798 161.172 141.395C160.499 141.981 159.69 142.442 158.746 142.779C157.802 143.104 156.711 143.267 155.474 143.267ZM157.46 138.481C158.48 138.481 159.381 138.28 160.162 137.879C160.944 137.466 161.557 136.913 162.002 136.218C162.447 135.524 162.669 134.737 162.669 133.858V131.204C162.452 131.346 162.154 131.476 161.774 131.595C161.405 131.704 160.987 131.807 160.521 131.904C160.054 131.991 159.587 132.073 159.121 132.149C158.654 132.214 158.231 132.273 157.851 132.328C157.037 132.447 156.326 132.637 155.718 132.897C155.111 133.158 154.639 133.511 154.302 133.956C153.966 134.39 153.797 134.932 153.797 135.584C153.797 136.528 154.139 137.249 154.823 137.749C155.518 138.237 156.397 138.481 157.46 138.481Z" fill="url(#paint0_linear_1_29)"/>
<path d="M145.467 117.791L136.725 142.795H128.911L120.169 117.791H127.495L132.688 135.681H132.948L138.125 117.791H145.467Z" fill="url(#paint1_linear_1_29)"/>
<path d="M106.145 143.283C103.616 143.283 101.43 142.746 99.5846 141.672C97.7505 140.587 96.3342 139.078 95.3358 137.146C94.3373 135.204 93.8381 132.952 93.8381 130.391C93.8381 127.808 94.3373 125.55 95.3358 123.619C96.3342 121.676 97.7505 120.167 99.5846 119.093C101.43 118.008 103.616 117.465 106.145 117.465C108.674 117.465 110.855 118.008 112.689 119.093C114.534 120.167 115.956 121.676 116.954 123.619C117.953 125.55 118.452 127.808 118.452 130.391C118.452 132.952 117.953 135.204 116.954 137.146C115.956 139.078 114.534 140.587 112.689 141.672C110.855 142.746 108.674 143.283 106.145 143.283ZM106.178 137.911C107.328 137.911 108.288 137.586 109.059 136.935C109.829 136.273 110.41 135.372 110.801 134.232C111.202 133.093 111.403 131.796 111.403 130.342C111.403 128.887 111.202 127.591 110.801 126.451C110.41 125.312 109.829 124.411 109.059 123.749C108.288 123.087 107.328 122.756 106.178 122.756C105.016 122.756 104.04 123.087 103.247 123.749C102.466 124.411 101.874 125.312 101.473 126.451C101.082 127.591 100.887 128.887 100.887 130.342C100.887 131.796 101.082 133.093 101.473 134.232C101.874 135.372 102.466 136.273 103.247 136.935C104.04 137.586 105.016 137.911 106.178 137.911Z" fill="url(#paint2_linear_1_29)"/>
<path d="M73.2656 128.339V142.795H66.3308V117.791H72.94V122.202H73.2331C73.7865 120.748 74.7144 119.598 76.0168 118.751C77.3191 117.894 78.8981 117.465 80.7539 117.465C82.4903 117.465 84.0043 117.845 85.2957 118.605C86.5872 119.364 87.5911 120.45 88.3073 121.86C89.0236 123.26 89.3818 124.932 89.3818 126.874V142.795H82.4469V128.111C82.4578 126.581 82.0671 125.387 81.2748 124.53C80.4826 123.662 79.3919 123.228 78.0028 123.228C77.0695 123.228 76.2447 123.429 75.5284 123.83C74.823 124.232 74.2695 124.818 73.8679 125.588C73.4772 126.348 73.2765 127.265 73.2656 128.339Z" fill="url(#paint3_linear_1_29)"/>
<path d="M53.8489 132.149V117.791H60.7838V142.795H54.1257V138.253H53.8652C53.3009 139.718 52.3621 140.896 51.049 141.786C49.7467 142.676 48.1567 143.121 46.2792 143.121C44.6079 143.121 43.1374 142.741 41.8677 141.981C40.5979 141.221 39.6049 140.142 38.8886 138.742C38.1832 137.342 37.8251 135.665 37.8142 133.711V117.791H44.749V132.474C44.7599 133.95 45.156 135.117 45.9374 135.974C46.7188 136.832 47.7661 137.26 49.0792 137.26C49.9149 137.26 50.6963 137.07 51.4234 136.69C52.1505 136.3 52.7365 135.725 53.1815 134.965C53.6373 134.205 53.8598 133.266 53.8489 132.149Z" fill="url(#paint4_linear_1_29)"/>
<path d="M14.6696 131.204H20.6603L23.6719 135.079L26.6347 138.53L32.2183 145.53H25.6416L21.7998 140.809L19.8301 138.009L14.6696 131.204ZM32.723 126.125C32.723 129.761 32.0338 132.854 30.6555 135.404C29.2881 137.955 27.4215 139.903 25.0556 141.249C22.7006 142.583 20.0525 143.251 17.1115 143.251C14.1487 143.251 11.4898 142.578 9.13481 141.232C6.7798 139.887 4.91857 137.939 3.55114 135.388C2.18371 132.838 1.5 129.75 1.5 126.125C1.5 122.49 2.18371 119.397 3.55114 116.846C4.91857 114.296 6.7798 112.353 9.13481 111.019C11.4898 109.673 14.1487 109 17.1115 109C20.0525 109 22.7006 109.673 25.0556 111.019C27.4215 112.353 29.2881 114.296 30.6555 116.846C32.0338 119.397 32.723 122.49 32.723 126.125ZM25.5765 126.125C25.5765 123.77 25.2238 121.784 24.5184 120.167C23.8238 118.55 22.8417 117.324 21.5719 116.488C20.3022 115.653 18.8153 115.235 17.1115 115.235C15.4076 115.235 13.9208 115.653 12.6511 116.488C11.3813 117.324 10.3937 118.55 9.6883 120.167C8.99373 121.784 8.64645 123.77 8.64645 126.125C8.64645 128.48 8.99373 130.467 9.6883 132.084C10.3937 133.701 11.3813 134.927 12.6511 135.763C13.9208 136.598 15.4076 137.016 17.1115 137.016C18.8153 137.016 20.3022 136.598 21.5719 135.763C22.8417 134.927 23.8238 133.701 24.5184 132.084C25.2238 130.467 25.5765 128.48 25.5765 126.125Z" fill="url(#paint5_linear_1_29)"/>
<path d="M1.14489 153.545H2.51136L5.72443 161.393H5.83523L9.0483 153.545H10.4148V163H9.34375V155.817H9.25142L6.29688 163H5.26278L2.30824 155.817H2.21591V163H1.14489V153.545ZM20.6492 163.166C20.1999 163.166 19.7921 163.082 19.4259 162.912C19.0596 162.74 18.7688 162.492 18.5534 162.169C18.3379 161.843 18.2302 161.449 18.2302 160.987C18.2302 160.581 18.3102 160.252 18.4703 159.999C18.6303 159.744 18.8442 159.544 19.1119 159.399C19.3797 159.255 19.6752 159.147 19.9983 159.076C20.3245 159.002 20.6523 158.944 20.9816 158.901C21.4125 158.845 21.7618 158.804 22.0296 158.776C22.3004 158.745 22.4974 158.694 22.6205 158.624C22.7467 158.553 22.8097 158.43 22.8097 158.254V158.217C22.8097 157.762 22.6851 157.408 22.4358 157.156C22.1896 156.903 21.8157 156.777 21.314 156.777C20.7939 156.777 20.3861 156.891 20.0906 157.119C19.7952 157.346 19.5874 157.59 19.4674 157.848L18.4333 157.479C18.618 157.048 18.8642 156.712 19.172 156.472C19.4828 156.229 19.8213 156.06 20.1876 155.965C20.5569 155.866 20.9201 155.817 21.2771 155.817C21.5048 155.817 21.7664 155.844 22.0619 155.9C22.3604 155.952 22.6482 156.061 22.9252 156.228C23.2052 156.394 23.4376 156.645 23.6222 156.98C23.8069 157.316 23.8992 157.765 23.8992 158.328V163H22.8097V162.04H22.7544C22.6805 162.194 22.5574 162.358 22.385 162.534C22.2127 162.709 21.9834 162.858 21.6972 162.982C21.411 163.105 21.0616 163.166 20.6492 163.166ZM20.8154 162.188C21.2463 162.188 21.6095 162.103 21.9049 161.934C22.2035 161.764 22.4281 161.546 22.5789 161.278C22.7328 161.01 22.8097 160.729 22.8097 160.433V159.436C22.7636 159.492 22.662 159.542 22.5051 159.588C22.3512 159.632 22.1727 159.67 21.9695 159.704C21.7695 159.735 21.5741 159.762 21.3833 159.787C21.1955 159.809 21.0432 159.827 20.9262 159.842C20.6431 159.879 20.3784 159.939 20.1322 160.022C19.8891 160.102 19.6921 160.224 19.5413 160.387C19.3936 160.547 19.3197 160.766 19.3197 161.043C19.3197 161.421 19.4597 161.707 19.7398 161.901C20.0229 162.092 20.3815 162.188 20.8154 162.188ZM32.9034 160.415L32.8849 159.067H33.1065L36.2088 155.909H37.5568L34.2514 159.251H34.1591L32.9034 160.415ZM31.8878 163V153.545H32.9773V163H31.8878ZM36.3935 163L33.6236 159.492L34.3991 158.734L37.7784 163H36.3935ZM47.6401 163.148C46.9569 163.148 46.3675 162.997 45.872 162.695C45.3796 162.391 44.9995 161.966 44.7317 161.421C44.467 160.873 44.3347 160.236 44.3347 159.51C44.3347 158.784 44.467 158.143 44.7317 157.59C44.9995 157.032 45.3719 156.599 45.8489 156.288C46.329 155.974 46.8891 155.817 47.5293 155.817C47.8986 155.817 48.2633 155.878 48.6234 156.001C48.9835 156.125 49.3113 156.325 49.6067 156.602C49.9022 156.876 50.1376 157.239 50.313 157.691C50.4885 158.143 50.5762 158.701 50.5762 159.362V159.824H45.1103V158.882H49.4682C49.4682 158.482 49.3882 158.125 49.2282 157.811C49.0712 157.497 48.8465 157.249 48.5542 157.068C48.2649 156.886 47.9232 156.795 47.5293 156.795C47.0953 156.795 46.7199 156.903 46.4029 157.119C46.089 157.331 45.8474 157.608 45.6781 157.95C45.5088 158.291 45.4242 158.657 45.4242 159.048V159.676C45.4242 160.212 45.5165 160.666 45.7012 161.038C45.8889 161.407 46.149 161.689 46.4814 161.883C46.8137 162.074 47.2 162.169 47.6401 162.169C47.9263 162.169 48.1848 162.129 48.4157 162.049C48.6496 161.966 48.8511 161.843 49.0204 161.68C49.1897 161.514 49.3205 161.307 49.4128 161.061L50.4654 161.357C50.3546 161.714 50.1684 162.027 49.9068 162.298C49.6452 162.566 49.322 162.775 48.9373 162.926C48.5526 163.074 48.1202 163.148 47.6401 163.148ZM68.0375 163V153.545H69.1824V161.984H73.5772V163H68.0375ZM81.2022 163V155.909H82.2917V163H81.2022ZM81.7562 154.727C81.5439 154.727 81.3607 154.655 81.2069 154.51C81.056 154.366 80.9806 154.192 80.9806 153.989C80.9806 153.786 81.056 153.612 81.2069 153.467C81.3607 153.322 81.5439 153.25 81.7562 153.25C81.9686 153.25 82.1502 153.322 82.301 153.467C82.4548 153.612 82.5318 153.786 82.5318 153.989C82.5318 154.192 82.4548 154.366 82.301 154.51C82.1502 154.655 81.9686 154.727 81.7562 154.727ZM93.4449 155.909V156.832H89.6224V155.909H93.4449ZM90.7673 163V154.93C90.7673 154.524 90.8627 154.186 91.0535 153.915C91.2443 153.644 91.4921 153.441 91.7968 153.305C92.1015 153.17 92.4231 153.102 92.7616 153.102C93.0294 153.102 93.2479 153.124 93.4172 153.167C93.5864 153.21 93.7126 153.25 93.7957 153.287L93.4818 154.229C93.4264 154.21 93.3495 154.187 93.251 154.159C93.1556 154.132 93.0294 154.118 92.8724 154.118C92.5123 154.118 92.2523 154.209 92.0922 154.39C91.9353 154.572 91.8568 154.838 91.8568 155.189V163H90.7673ZM103.653 163.148C102.97 163.148 102.38 162.997 101.885 162.695C101.392 162.391 101.012 161.966 100.744 161.421C100.48 160.873 100.347 160.236 100.347 159.51C100.347 158.784 100.48 158.143 100.744 157.59C101.012 157.032 101.385 156.599 101.862 156.288C102.342 155.974 102.902 155.817 103.542 155.817C103.911 155.817 104.276 155.878 104.636 156.001C104.996 156.125 105.324 156.325 105.619 156.602C105.915 156.876 106.15 157.239 106.326 157.691C106.501 158.143 106.589 158.701 106.589 159.362V159.824H101.123V158.882H105.481C105.481 158.482 105.401 158.125 105.241 157.811C105.084 157.497 104.859 157.249 104.567 157.068C104.278 156.886 103.936 156.795 103.542 156.795C103.108 156.795 102.733 156.903 102.416 157.119C102.102 157.331 101.86 157.608 101.691 157.95C101.522 158.291 101.437 158.657 101.437 159.048V159.676C101.437 160.212 101.529 160.666 101.714 161.038C101.902 161.407 102.162 161.689 102.494 161.883C102.826 162.074 103.213 162.169 103.653 162.169C103.939 162.169 104.198 162.129 104.428 162.049C104.662 161.966 104.864 161.843 105.033 161.68C105.202 161.514 105.333 161.307 105.426 161.061L106.478 161.357C106.367 161.714 106.181 162.027 105.919 162.298C105.658 162.566 105.335 162.775 104.95 162.926C104.565 163.074 104.133 163.148 103.653 163.148ZM124.05 163V153.545H129.756V154.561H125.195V157.756H129.461V158.771H125.195V161.984H129.83V163H124.05ZM139.759 163.166C139.309 163.166 138.901 163.082 138.535 162.912C138.169 162.74 137.878 162.492 137.663 162.169C137.447 161.843 137.34 161.449 137.34 160.987C137.34 160.581 137.42 160.252 137.58 159.999C137.74 159.744 137.954 159.544 138.221 159.399C138.489 159.255 138.785 159.147 139.108 159.076C139.434 159.002 139.762 158.944 140.091 158.901C140.522 158.845 140.871 158.804 141.139 158.776C141.41 158.745 141.607 158.694 141.73 158.624C141.856 158.553 141.919 158.43 141.919 158.254V158.217C141.919 157.762 141.794 157.408 141.545 157.156C141.299 156.903 140.925 156.777 140.423 156.777C139.903 156.777 139.495 156.891 139.2 157.119C138.905 157.346 138.697 157.59 138.577 157.848L137.543 157.479C137.727 157.048 137.974 156.712 138.281 156.472C138.592 156.229 138.931 156.06 139.297 155.965C139.666 155.866 140.029 155.817 140.386 155.817C140.614 155.817 140.876 155.844 141.171 155.9C141.47 155.952 141.758 156.061 142.035 156.228C142.315 156.394 142.547 156.645 142.732 156.98C142.916 157.316 143.009 157.765 143.009 158.328V163H141.919V162.04H141.864C141.79 162.194 141.667 162.358 141.494 162.534C141.322 162.709 141.093 162.858 140.807 162.982C140.52 163.105 140.171 163.166 139.759 163.166ZM139.925 162.188C140.356 162.188 140.719 162.103 141.014 161.934C141.313 161.764 141.537 161.546 141.688 161.278C141.842 161.01 141.919 160.729 141.919 160.433V159.436C141.873 159.492 141.771 159.542 141.614 159.588C141.461 159.632 141.282 159.67 141.079 159.704C140.879 159.735 140.683 159.762 140.493 159.787C140.305 159.809 140.153 159.827 140.036 159.842C139.752 159.879 139.488 159.939 139.242 160.022C138.998 160.102 138.801 160.224 138.651 160.387C138.503 160.547 138.429 160.766 138.429 161.043C138.429 161.421 138.569 161.707 138.849 161.901C139.132 162.092 139.491 162.188 139.925 162.188ZM156.02 157.497L155.041 157.774C154.98 157.611 154.889 157.453 154.769 157.299C154.652 157.142 154.492 157.012 154.289 156.911C154.086 156.809 153.826 156.759 153.509 156.759C153.075 156.759 152.713 156.859 152.424 157.059C152.137 157.256 151.994 157.506 151.994 157.811C151.994 158.082 152.093 158.296 152.29 158.453C152.487 158.61 152.795 158.741 153.213 158.845L154.266 159.104C154.9 159.258 155.372 159.493 155.683 159.81C155.994 160.124 156.149 160.529 156.149 161.024C156.149 161.43 156.032 161.794 155.798 162.114C155.567 162.434 155.244 162.686 154.829 162.871C154.413 163.055 153.93 163.148 153.379 163.148C152.656 163.148 152.057 162.991 151.583 162.677C151.109 162.363 150.809 161.904 150.683 161.301L151.717 161.043C151.816 161.424 152.002 161.71 152.276 161.901C152.553 162.092 152.915 162.188 153.361 162.188C153.869 162.188 154.272 162.08 154.57 161.864C154.872 161.646 155.023 161.384 155.023 161.08C155.023 160.833 154.937 160.627 154.764 160.461C154.592 160.292 154.327 160.166 153.97 160.082L152.788 159.805C152.139 159.652 151.662 159.413 151.357 159.09C151.056 158.764 150.905 158.356 150.905 157.867C150.905 157.466 151.017 157.112 151.242 156.805C151.47 156.497 151.779 156.255 152.17 156.08C152.564 155.905 153.01 155.817 153.509 155.817C154.21 155.817 154.761 155.971 155.161 156.278C155.564 156.586 155.851 156.992 156.02 157.497ZM164.491 165.659C164.306 165.659 164.142 165.644 163.997 165.613C163.852 165.585 163.752 165.558 163.697 165.53L163.974 164.57C164.238 164.637 164.472 164.662 164.676 164.643C164.879 164.625 165.059 164.534 165.216 164.371C165.376 164.211 165.522 163.951 165.654 163.591L165.857 163.037L163.235 155.909H164.417L166.374 161.56H166.448L168.406 155.909H169.587L166.578 164.034C166.442 164.4 166.274 164.704 166.074 164.944C165.874 165.187 165.642 165.367 165.377 165.484C165.116 165.601 164.82 165.659 164.491 165.659Z" fill="#717171"/>
<defs>
<linearGradient id="paint0_linear_1_29" x1="1.5" y1="127.265" x2="169.555" y2="127.265" gradientUnits="userSpaceOnUse">
<stop offset="0.45" stop-color="#098268"/>
<stop offset="1" stop-color="#F59A15"/>
</linearGradient>
<linearGradient id="paint1_linear_1_29" x1="1.5" y1="127.265" x2="169.555" y2="127.265" gradientUnits="userSpaceOnUse">
<stop offset="0.45" stop-color="#098268"/>
<stop offset="1" stop-color="#F59A15"/>
</linearGradient>
<linearGradient id="paint2_linear_1_29" x1="1.5" y1="127.265" x2="169.555" y2="127.265" gradientUnits="userSpaceOnUse">
<stop offset="0.45" stop-color="#098268"/>
<stop offset="1" stop-color="#F59A15"/>
</linearGradient>
<linearGradient id="paint3_linear_1_29" x1="1.5" y1="127.265" x2="169.555" y2="127.265" gradientUnits="userSpaceOnUse">
<stop offset="0.45" stop-color="#098268"/>
<stop offset="1" stop-color="#F59A15"/>
</linearGradient>
<linearGradient id="paint4_linear_1_29" x1="1.5" y1="127.265" x2="169.555" y2="127.265" gradientUnits="userSpaceOnUse">
<stop offset="0.45" stop-color="#098268"/>
<stop offset="1" stop-color="#F59A15"/>
</linearGradient>
<linearGradient id="paint5_linear_1_29" x1="1.5" y1="127.265" x2="169.555" y2="127.265" gradientUnits="userSpaceOnUse">
<stop offset="0.45" stop-color="#098268"/>
<stop offset="1" stop-color="#F59A15"/>
</linearGradient>
</defs>
</svg>
